<?plantuml 1.2026.2?><svg xmlns="http://www.w3.org/2000/svg" xmlns:xlink="http://www.w3.org/1999/xlink" contentStyleType="text/css" data-diagram-type="SEQUENCE" height="1502px" preserveAspectRatio="none" style="width:1462px;height:1502px;background:#FFFFFF;" version="1.1" viewBox="0 0 1462 1502" width="1462px" zoomAndPan="magnify"><title>Cloudflare DoH Worker Sequence Diagram</title><defs/><g><text fill="#000000" font-family="sans-serif" font-size="14" font-weight="bold" lengthAdjust="spacing" textLength="304.917" x="579.6472" y="28.5352">Cloudflare DoH Worker Sequence Diagram</text><g><title>DNS Client</title><rect fill="#FFFFFF" height="1374.3945" style="stroke:#181818;stroke-width:1;" width="10" x="68.1519" y="83.9766"/></g><rect fill="none" height="1264.1523" style="stroke:#000000;stroke-width:1.5;" width="1445.2114" x="10" y="186.2188"/><rect fill="none" height="75.9316" style="stroke:#000000;stroke-width:1.5;" width="467.6187" x="409.2725" y="210.5293"/><rect fill="none" height="251.4395" style="stroke:#000000;stroke-width:1.5;" width="773.1782" x="351" y="447.6133"/><rect fill="none" height="220.1289" style="stroke:#000000;stroke-width:1.5;" width="753.1782" x="361" y="471.9238"/><rect fill="none" height="293.7051" style="stroke:#000000;stroke-width:1.5;" width="787.1782" x="337" y="713.0527"/><rect fill="none" height="176.8184" style="stroke:#000000;stroke-width:1.5;" width="767.1782" x="347" y="772.6738"/><rect fill="none" height="422.6133" style="stroke:#000000;stroke-width:1.5;" width="1425.2114" x="20" y="1020.7578"/><rect fill="none" height="193.1738" style="stroke:#000000;stroke-width:1.5;" width="1025.939" x="409.2725" y="1118.6445"/><g class="participant-lifeline" data-entity-uid="part1" data-qualified-name="DNS Client" id="part1-lifeline"><g><title>DNS Client</title><rect fill="#000000" fill-opacity="0.00000" height="1393.3945" width="8" x="69.1519" y="73.9766"/><line style="stroke:#181818;stroke-width:0.5;stroke-dasharray:5,5;" x1="73" x2="73" y1="73.9766" y2="1467.3711"/></g></g><g class="participant-lifeline" data-entity-uid="part2" data-qualified-name="Cloudflare Worker" id="part2-lifeline"><g><title>Cloudflare Worker</title><rect fill="#000000" fill-opacity="0.00000" height="1393.3945" width="8" x="483.6387" y="73.9766"/><line style="stroke:#181818;stroke-width:0.5;stroke-dasharray:5,5;" x1="487.2725" x2="487.2725" y1="73.9766" y2="1467.3711"/></g></g><g class="participant-lifeline" data-entity-uid="part3" data-qualified-name="Bypass Provider" id="part3-lifeline"><g><title>Bypass Provider</title><rect fill="#000000" fill-opacity="0.00000" height="1393.3945" width="8" x="802.7349" y="73.9766"/><line style="stroke:#181818;stroke-width:0.5;stroke-dasharray:5,5;" x1="806.5786" x2="806.5786" y1="73.9766" y2="1467.3711"/></g></g><g class="participant-lifeline" data-entity-uid="part4" data-qualified-name="Grafana Loki" id="part4-lifeline"><g><title>Grafana Loki</title><rect fill="#000000" fill-opacity="0.00000" height="1393.3945" width="8" x="922.6909" y="73.9766"/><line style="stroke:#181818;stroke-width:0.5;stroke-dasharray:5,5;" x1="925.8911" x2="925.8911" y1="73.9766" y2="1467.3711"/></g></g><g class="participant-lifeline" data-entity-uid="part5" data-qualified-name="Workers Assets" id="part5-lifeline"><g><title>Workers Assets</title><rect fill="#000000" fill-opacity="0.00000" height="1393.3945" width="8" x="1041.3345" y="73.9766"/><line style="stroke:#181818;stroke-width:0.5;stroke-dasharray:5,5;" x1="1044.4907" x2="1044.4907" y1="73.9766" y2="1467.3711"/></g></g><g class="participant-lifeline" data-entity-uid="part6" data-qualified-name="Main Provider" id="part6-lifeline"><g><title>Main Provider</title><rect fill="#000000" fill-opacity="0.00000" height="1393.3945" width="8" x="1163.5054" y="73.9766"/><line style="stroke:#181818;stroke-width:0.5;stroke-dasharray:5,5;" x1="1167.1782" x2="1167.1782" y1="73.9766" y2="1467.3711"/></g></g><g class="participant-lifeline" data-entity-uid="part7" data-qualified-name="Additional Provider 1" id="part7-lifeline"><g><title>Additional Provider 1</title><rect fill="#000000" fill-opacity="0.00000" height="1393.3945" width="8" x="1305.3774" y="73.9766"/><line style="stroke:#181818;stroke-width:0.5;stroke-dasharray:5,5;" x1="1308.8325" x2="1308.8325" y1="73.9766" y2="1467.3711"/></g></g><g class="participant-lifeline" data-entity-uid="part8" data-qualified-name="..." id="part8-lifeline"><g><title>...</title><rect fill="#000000" fill-opacity="0.00000" height="1393.3945" width="8" x="1407.5669" y="73.9766"/><line style="stroke:#181818;stroke-width:0.5;stroke-dasharray:5,5;" x1="1410.9224" x2="1410.9224" y1="73.9766" y2="1467.3711"/></g></g><g class="participant participant-head" data-entity-uid="part1" data-qualified-name="DNS Client" id="part1-head"><rect fill="#E2E2F0" height="30.4883" rx="2.5" ry="2.5" style="stroke:#181818;stroke-width:0.5;" width="86.3037" x="30" y="42.4883"/><text fill="#000000" font-family="sans-serif" font-size="14" lengthAdjust="spacing" textLength="72.3037" x="37" y="63.0234">DNS Client</text></g><g class="participant participant-tail" data-entity-uid="part1" data-qualified-name="DNS Client" id="part1-tail"><rect fill="#E2E2F0" height="30.4883" rx="2.5" ry="2.5" style="stroke:#181818;stroke-width:0.5;" width="86.3037" x="30" y="1466.3711"/><text fill="#000000" font-family="sans-serif" font-size="14" lengthAdjust="spacing" textLength="72.3037" x="37" y="1486.9063">DNS Client</text></g><g class="participant participant-head" data-entity-uid="part2" data-qualified-name="Cloudflare Worker" id="part2-head"><rect fill="#E2E2F0" height="30.4883" rx="2.5" ry="2.5" style="stroke:#181818;stroke-width:0.5;" width="136.7324" x="419.2725" y="42.4883"/><text fill="#000000" font-family="sans-serif" font-size="14" lengthAdjust="spacing" textLength="122.7324" x="426.2725" y="63.0234">Cloudflare Worker</text></g><g class="participant participant-tail" data-entity-uid="part2" data-qualified-name="Cloudflare Worker" id="part2-tail"><rect fill="#E2E2F0" height="30.4883" rx="2.5" ry="2.5" style="stroke:#181818;stroke-width:0.5;" width="136.7324" x="419.2725" y="1466.3711"/><text fill="#000000" font-family="sans-serif" font-size="14" lengthAdjust="spacing" textLength="122.7324" x="426.2725" y="1486.9063">Cloudflare Worker</text></g><g class="participant participant-head" data-entity-uid="part3" data-qualified-name="Bypass Provider" id="part3-head"><rect fill="#E2E2F0" height="30.4883" rx="2.5" ry="2.5" style="stroke:#181818;stroke-width:0.5;" width="120.3125" x="746.5786" y="42.4883"/><text fill="#000000" font-family="sans-serif" font-size="14" lengthAdjust="spacing" textLength="106.3125" x="753.5786" y="63.0234">Bypass Provider</text></g><g class="participant participant-tail" data-entity-uid="part3" data-qualified-name="Bypass Provider" id="part3-tail"><rect fill="#E2E2F0" height="30.4883" rx="2.5" ry="2.5" style="stroke:#181818;stroke-width:0.5;" width="120.3125" x="746.5786" y="1466.3711"/><text fill="#000000" font-family="sans-serif" font-size="14" lengthAdjust="spacing" textLength="106.3125" x="753.5786" y="1486.9063">Bypass Provider</text></g><g class="participant participant-head" data-entity-uid="part4" data-qualified-name="Grafana Loki" id="part4-head"><rect fill="#E2E2F0" height="30.4883" rx="2.5" ry="2.5" style="stroke:#181818;stroke-width:0.5;" width="99.5996" x="876.8911" y="42.4883"/><text fill="#000000" font-family="sans-serif" font-size="14" lengthAdjust="spacing" textLength="85.5996" x="883.8911" y="63.0234">Grafana Loki</text></g><g class="participant participant-tail" data-entity-uid="part4" data-qualified-name="Grafana Loki" id="part4-tail"><rect fill="#E2E2F0" height="30.4883" rx="2.5" ry="2.5" style="stroke:#181818;stroke-width:0.5;" width="99.5996" x="876.8911" y="1466.3711"/><text fill="#000000" font-family="sans-serif" font-size="14" lengthAdjust="spacing" textLength="85.5996" x="883.8911" y="1486.9063">Grafana Loki</text></g><g class="participant participant-head" data-entity-uid="part5" data-qualified-name="Workers Assets" id="part5-head"><rect fill="#E2E2F0" height="30.4883" rx="2.5" ry="2.5" style="stroke:#181818;stroke-width:0.5;" width="117.6875" x="986.4907" y="42.4883"/><text fill="#000000" font-family="sans-serif" font-size="14" lengthAdjust="spacing" textLength="103.6875" x="993.4907" y="63.0234">Workers Assets</text></g><g class="participant participant-tail" data-entity-uid="part5" data-qualified-name="Workers Assets" id="part5-tail"><rect fill="#E2E2F0" height="30.4883" rx="2.5" ry="2.5" style="stroke:#181818;stroke-width:0.5;" width="117.6875" x="986.4907" y="1466.3711"/><text fill="#000000" font-family="sans-serif" font-size="14" lengthAdjust="spacing" textLength="103.6875" x="993.4907" y="1486.9063">Workers Assets</text></g><g class="participant participant-head" data-entity-uid="part6" data-qualified-name="Main Provider" id="part6-head"><rect fill="#E2E2F0" height="30.4883" rx="2.5" ry="2.5" style="stroke:#181818;stroke-width:0.5;" width="106.6543" x="1114.1782" y="42.4883"/><text fill="#000000" font-family="sans-serif" font-size="14" lengthAdjust="spacing" textLength="92.6543" x="1121.1782" y="63.0234">Main Provider</text></g><g class="participant participant-tail" data-entity-uid="part6" data-qualified-name="Main Provider" id="part6-tail"><rect fill="#E2E2F0" height="30.4883" rx="2.5" ry="2.5" style="stroke:#181818;stroke-width:0.5;" width="106.6543" x="1114.1782" y="1466.3711"/><text fill="#000000" font-family="sans-serif" font-size="14" lengthAdjust="spacing" textLength="92.6543" x="1121.1782" y="1486.9063">Main Provider</text></g><g class="participant participant-head" data-entity-uid="part7" data-qualified-name="Additional Provider 1" id="part7-head"><rect fill="#E2E2F0" height="30.4883" rx="2.5" ry="2.5" style="stroke:#181818;stroke-width:0.5;" width="157.0898" x="1230.8325" y="42.4883"/><text fill="#000000" font-family="sans-serif" font-size="14" lengthAdjust="spacing" textLength="143.0898" x="1237.8325" y="63.0234">Additional Provider 1</text></g><g class="participant participant-tail" data-entity-uid="part7" data-qualified-name="Additional Provider 1" id="part7-tail"><rect fill="#E2E2F0" height="30.4883" rx="2.5" ry="2.5" style="stroke:#181818;stroke-width:0.5;" width="157.0898" x="1230.8325" y="1466.3711"/><text fill="#000000" font-family="sans-serif" font-size="14" lengthAdjust="spacing" textLength="143.0898" x="1237.8325" y="1486.9063">Additional Provider 1</text></g><g class="participant participant-head" data-entity-uid="part8" data-qualified-name="..." id="part8-head"><rect fill="#E2E2F0" height="30.4883" rx="2.5" ry="2.5" style="stroke:#181818;stroke-width:0.5;" width="27.2891" x="1397.9224" y="42.4883"/><text fill="#000000" font-family="sans-serif" font-size="14" lengthAdjust="spacing" textLength="13.2891" x="1404.9224" y="63.0234">...</text></g><g class="participant participant-tail" data-entity-uid="part8" data-qualified-name="..." id="part8-tail"><rect fill="#E2E2F0" height="30.4883" rx="2.5" ry="2.5" style="stroke:#181818;stroke-width:0.5;" width="27.2891" x="1397.9224" y="1466.3711"/><text fill="#000000" font-family="sans-serif" font-size="14" lengthAdjust="spacing" textLength="13.2891" x="1404.9224" y="1486.9063">...</text></g><g><title>DNS Client</title><rect fill="#FFFFFF" height="1374.3945" style="stroke:#181818;stroke-width:1;" width="10" x="68.1519" y="83.9766"/></g><g class="message" data-entity-1="part1" data-entity-2="part2" id="msg1"><polygon fill="#181818" points="475.6387,101.2871,485.6387,105.2871,475.6387,109.2871,479.6387,105.2871" style="stroke:#181818;stroke-width:1;"/><line style="stroke:#181818;stroke-width:1;" x1="78.1519" x2="481.6387" y1="105.2871" y2="105.2871"/><text fill="#000000" font-family="sans-serif" font-size="13" lengthAdjust="spacing" textLength="385.4868" x="85.1519" y="100.5449">GET/POST https://cloudflare-worker-domain/endpoint/path</text></g><path d="M370,118.2871 L370,173.2871 L604,173.2871 L604,128.2871 L594,118.2871 L370,118.2871" fill="#FEFFDD" style="stroke:#181818;stroke-width:0.5;"/><path d="M594,118.2871 L594,128.2871 L604,128.2871 L594,118.2871" fill="#FEFFDD" style="stroke:#181818;stroke-width:0.5;"/><text fill="#000000" font-family="sans-serif" font-size="13" lengthAdjust="spacing" textLength="191.2168" x="376" y="135.8555">Resolve {SECRET} placeholders</text><text fill="#000000" font-family="sans-serif" font-size="13" lengthAdjust="spacing" textLength="115.667" x="376" y="151.166">Parse DNS request</text><text fill="#000000" font-family="sans-serif" font-size="13" lengthAdjust="spacing" textLength="213.0845" x="376" y="166.4766">Truncate ECS prefixes (if enabled)</text><path d="M10,186.2188 L72.1387,186.2188 L72.1387,193.5293 L62.1387,203.5293 L10,203.5293 L10,186.2188" fill="#EEEEEE" style="stroke:#000000;stroke-width:1.5;"/><rect fill="none" height="1264.1523" style="stroke:#000000;stroke-width:1.5;" width="1445.2114" x="10" y="186.2188"/><text fill="#000000" font-family="sans-serif" font-size="13" font-weight="bold" lengthAdjust="spacing" textLength="17.1387" x="25" y="199.7871">alt</text><text fill="#000000" font-family="sans-serif" font-size="11" font-weight="bold" lengthAdjust="spacing" textLength="184.8569" x="87.1387" y="198.8535">[Domain in ALLOWED_DOMAINS]</text><path d="M409.2725,210.5293 L704.2114,210.5293 L704.2114,217.8398 L694.2114,227.8398 L409.2725,227.8398 L409.2725,210.5293" fill="#EEEEEE" style="stroke:#000000;stroke-width:1.5;"/><rect fill="none" height="75.9316" style="stroke:#000000;stroke-width:1.5;" width="467.6187" x="409.2725" y="210.5293"/><text fill="#000000" font-family="sans-serif" font-size="13" font-weight="bold" lengthAdjust="spacing" textLength="249.939" x="424.2725" y="224.0977">Single request (Bypass Provider only)</text><g class="message" data-entity-1="part2" data-entity-2="part3" id="msg2"><polygon fill="#181818" points="794.7349,245.1504,804.7349,249.1504,794.7349,253.1504,798.7349,249.1504" style="stroke:#181818;stroke-width:1;"/><line style="stroke:#181818;stroke-width:1;" x1="487.6387" x2="800.7349" y1="249.1504" y2="249.1504"/><text fill="#000000" font-family="sans-serif" font-size="13" lengthAdjust="spacing" textLength="295.0962" x="494.6387" y="244.4082">GET/POST https://bypass-provider/dns-query</text></g><g class="message" data-entity-1="part3" data-entity-2="part2" id="msg3"><polygon fill="#181818" points="498.6387,274.4609,488.6387,278.4609,498.6387,282.4609,494.6387,278.4609" style="stroke:#181818;stroke-width:1;"/><line style="stroke:#181818;stroke-width:1;" x1="492.6387" x2="805.7349" y1="278.4609" y2="278.4609"/><text fill="#000000" font-family="sans-serif" font-size="13" lengthAdjust="spacing" textLength="193.4829" x="504.6387" y="273.7188">Bypass Provider DNS Response</text></g><g class="message" data-entity-1="part2" data-entity-2="part4" id="msg4"><polygon fill="#808080" points="914.6909,310.7715,924.6909,314.7715,914.6909,318.7715,918.6909,314.7715" style="stroke:#808080;stroke-width:1;"/><line style="stroke:#808080;stroke-width:1;stroke-dasharray:2,2;" x1="487.6387" x2="920.6909" y1="314.7715" y2="314.7715"/><text fill="#000000" font-family="sans-serif" font-size="13" lengthAdjust="spacing" textLength="229.8042" x="494.6387" y="310.0293">POST log entry (async, if configured)</text></g><g class="message" data-entity-1="part2" data-entity-2="part1" id="msg5"><polygon fill="#181818" points="89.1519,340.082,79.1519,344.082,89.1519,348.082,85.1519,344.082" style="stroke:#181818;stroke-width:1;"/><line style="stroke:#181818;stroke-width:1;" x1="83.1519" x2="486.6387" y1="344.082" y2="344.082"/><text fill="#000000" font-family="sans-serif" font-size="13" lengthAdjust="spacing" textLength="208.73" x="95.1519" y="339.3398">Cloudflare Worker DNS Response</text></g><line style="stroke:#000000;stroke-width:1;stroke-dasharray:2,2;" x1="10" x2="1455.2114" y1="353.082" y2="353.082"/><text fill="#000000" font-family="sans-serif" font-size="11" font-weight="bold" lengthAdjust="spacing" textLength="182.9932" x="15" y="363.7168">[Domain in BLOCKED_DOMAINS]</text><g class="message" data-entity-1="part2" data-entity-2="part4" id="msg6"><polygon fill="#808080" points="914.6909,384.3477,924.6909,388.3477,914.6909,392.3477,918.6909,388.3477" style="stroke:#808080;stroke-width:1;"/><line style="stroke:#808080;stroke-width:1;stroke-dasharray:2,2;" x1="487.6387" x2="920.6909" y1="388.3477" y2="388.3477"/><text fill="#000000" font-family="sans-serif" font-size="13" lengthAdjust="spacing" textLength="229.8042" x="494.6387" y="383.6055">POST log entry (async, if configured)</text></g><g class="message" data-entity-1="part2" data-entity-2="part1" id="msg7"><polygon fill="#181818" points="89.1519,413.6582,79.1519,417.6582,89.1519,421.6582,85.1519,417.6582" style="stroke:#181818;stroke-width:1;"/><line style="stroke:#181818;stroke-width:1;" x1="83.1519" x2="486.6387" y1="417.6582" y2="417.6582"/><text fill="#000000" font-family="sans-serif" font-size="13" lengthAdjust="spacing" textLength="140.6006" x="95.1519" y="412.916">NXDOMAIN (synthetic)</text></g><line style="stroke:#000000;stroke-width:1;stroke-dasharray:2,2;" x1="10" x2="1455.2114" y1="426.6582" y2="426.6582"/><text fill="#000000" font-family="sans-serif" font-size="11" font-weight="bold" lengthAdjust="spacing" textLength="339.5713" x="15" y="437.293">[Domain not in ALLOWED_DOMAINS or BLOCKED_DOMAINS]</text><path d="M351,447.6133 L418.1851,447.6133 L418.1851,454.9238 L408.1851,464.9238 L351,464.9238 L351,447.6133" fill="#EEEEEE" style="stroke:#000000;stroke-width:1.5;"/><rect fill="none" height="251.4395" style="stroke:#000000;stroke-width:1.5;" width="773.1782" x="351" y="447.6133"/><text fill="#000000" font-family="sans-serif" font-size="13" font-weight="bold" lengthAdjust="spacing" textLength="22.1851" x="366" y="461.1816">opt</text><text fill="#000000" font-family="sans-serif" font-size="11" font-weight="bold" lengthAdjust="spacing" textLength="170.4463" x="433.1851" y="460.248">[Blocklist enabled (cold start)]</text><path d="M361,471.9238 L423.1387,471.9238 L423.1387,479.2344 L413.1387,489.2344 L361,489.2344 L361,471.9238" fill="#EEEEEE" style="stroke:#000000;stroke-width:1.5;"/><rect fill="none" height="220.1289" style="stroke:#000000;stroke-width:1.5;" width="753.1782" x="361" y="471.9238"/><text fill="#000000" font-family="sans-serif" font-size="13" font-weight="bold" lengthAdjust="spacing" textLength="17.1387" x="376" y="485.4922">alt</text><text fill="#000000" font-family="sans-serif" font-size="11" font-weight="bold" lengthAdjust="spacing" textLength="180.1841" x="438.1387" y="484.5586">[Sharded bloom filter (&gt;25 MB)]</text><g class="message" data-entity-1="part2" data-entity-2="part5" id="msg8"><polygon fill="#181818" points="1033.3345,506.5449,1043.3345,510.5449,1033.3345,514.5449,1037.3345,510.5449" style="stroke:#181818;stroke-width:1;"/><line style="stroke:#181818;stroke-width:1;" x1="487.6387" x2="1039.3345" y1="510.5449" y2="510.5449"/><text fill="#000000" font-family="sans-serif" font-size="13" lengthAdjust="spacing" textLength="106.52" x="494.6387" y="505.8027">fetch bloom.json</text></g><g class="message" data-entity-1="part5" data-entity-2="part2" id="msg9"><polygon fill="#181818" points="498.6387,535.8555,488.6387,539.8555,498.6387,543.8555,494.6387,539.8555" style="stroke:#181818;stroke-width:1;"/><line style="stroke:#181818;stroke-width:1;" x1="492.6387" x2="1044.3345" y1="539.8555" y2="539.8555"/><text fill="#000000" font-family="sans-serif" font-size="13" lengthAdjust="spacing" textLength="285.397" x="504.6387" y="535.1133">Shard metadata (bloom params, shard count)</text></g><path d="M371,552.8555 L371,577.8555 L604,577.8555 L604,562.8555 L594,552.8555 L371,552.8555" fill="#FEFFDD" style="stroke:#181818;stroke-width:0.5;"/><path d="M594,552.8555 L594,562.8555 L604,562.8555 L594,552.8555" fill="#FEFFDD" style="stroke:#181818;stroke-width:0.5;"/><text fill="#000000" font-family="sans-serif" font-size="13" lengthAdjust="spacing" textLength="212.2339" x="377" y="570.4238">Cache shard metadata in memory</text><line style="stroke:#000000;stroke-width:1;stroke-dasharray:2,2;" x1="361" x2="1114.1782" y1="584.166" y2="584.166"/><text fill="#000000" font-family="sans-serif" font-size="11" font-weight="bold" lengthAdjust="spacing" textLength="112.9702" x="366" y="594.8008">[Single bloom filter]</text><g class="message" data-entity-1="part2" data-entity-2="part5" id="msg10"><polygon fill="#181818" points="1033.3345,615.4316,1043.3345,619.4316,1033.3345,623.4316,1037.3345,619.4316" style="stroke:#181818;stroke-width:1;"/><line style="stroke:#181818;stroke-width:1;" x1="487.6387" x2="1039.3345" y1="619.4316" y2="619.4316"/><text fill="#000000" font-family="sans-serif" font-size="13" lengthAdjust="spacing" textLength="189.249" x="494.6387" y="614.6895">fetch bloom.json + bloom.bin</text></g><g class="message" data-entity-1="part5" data-entity-2="part2" id="msg11"><polygon fill="#181818" points="498.6387,644.7422,488.6387,648.7422,498.6387,652.7422,494.6387,648.7422" style="stroke:#181818;stroke-width:1;"/><line style="stroke:#181818;stroke-width:1;" x1="492.6387" x2="1044.3345" y1="648.7422" y2="648.7422"/><text fill="#000000" font-family="sans-serif" font-size="13" lengthAdjust="spacing" textLength="150.5601" x="504.6387" y="644">Bloom filter + metadata</text></g><path d="M383,661.7422 L383,686.7422 L591,686.7422 L591,671.7422 L581,661.7422 L383,661.7422" fill="#FEFFDD" style="stroke:#181818;stroke-width:0.5;"/><path d="M581,661.7422 L581,671.7422 L591,671.7422 L581,661.7422" fill="#FEFFDD" style="stroke:#181818;stroke-width:0.5;"/><text fill="#000000" font-family="sans-serif" font-size="13" lengthAdjust="spacing" textLength="187.8018" x="389" y="679.3105">Cache bloom filter in memory</text><path d="M337,713.0527 L399.1387,713.0527 L399.1387,720.3633 L389.1387,730.3633 L337,730.3633 L337,713.0527" fill="#EEEEEE" style="stroke:#000000;stroke-width:1.5;"/><rect fill="none" height="293.7051" style="stroke:#000000;stroke-width:1.5;" width="787.1782" x="337" y="713.0527"/><text fill="#000000" font-family="sans-serif" font-size="13" font-weight="bold" lengthAdjust="spacing" textLength="17.1387" x="352" y="726.6211">alt</text><text fill="#000000" font-family="sans-serif" font-size="11" font-weight="bold" lengthAdjust="spacing" textLength="124.604" x="414.1387" y="725.6875">[Sharded bloom filter]</text><path d="M353,735.3633 L353,760.3633 L620,760.3633 L620,745.3633 L610,735.3633 L353,735.3633" fill="#FEFFDD" style="stroke:#181818;stroke-width:0.5;"/><path d="M610,735.3633 L610,745.3633 L620,745.3633 L610,735.3633" fill="#FEFFDD" style="stroke:#181818;stroke-width:0.5;"/><text fill="#000000" font-family="sans-serif" font-size="13" lengthAdjust="spacing" textLength="246.8032" x="359" y="752.9316">Hash domain to determine shard index</text><path d="M347,772.6738 L409.1387,772.6738 L409.1387,779.9844 L399.1387,789.9844 L347,789.9844 L347,772.6738" fill="#EEEEEE" style="stroke:#000000;stroke-width:1.5;"/><rect fill="none" height="176.8184" style="stroke:#000000;stroke-width:1.5;" width="767.1782" x="347" y="772.6738"/><text fill="#000000" font-family="sans-serif" font-size="13" font-weight="bold" lengthAdjust="spacing" textLength="17.1387" x="362" y="786.2422">alt</text><text fill="#000000" font-family="sans-serif" font-size="11" font-weight="bold" lengthAdjust="spacing" textLength="191.3989" x="424.1387" y="785.3086">[Shard in LRU cache (50 MB pool)]</text><path d="M357,794.9844 L357,819.9844 L616,819.9844 L616,804.9844 L606,794.9844 L357,794.9844" fill="#FEFFDD" style="stroke:#181818;stroke-width:0.5;"/><path d="M606,794.9844 L606,804.9844 L616,804.9844 L606,794.9844" fill="#FEFFDD" style="stroke:#181818;stroke-width:0.5;"/><text fill="#000000" font-family="sans-serif" font-size="13" lengthAdjust="spacing" textLength="238.4814" x="363" y="812.5527">Check bloom filter from cached shard</text><line style="stroke:#000000;stroke-width:1;stroke-dasharray:2,2;" x1="347" x2="1114.1782" y1="826.2949" y2="826.2949"/><text fill="#000000" font-family="sans-serif" font-size="11" font-weight="bold" lengthAdjust="spacing" textLength="105.5098" x="352" y="836.9297">[Shard not cached]</text><g class="message" data-entity-1="part2" data-entity-2="part5" id="msg12"><polygon fill="#181818" points="1033.3345,857.5605,1043.3345,861.5605,1033.3345,865.5605,1037.3345,861.5605" style="stroke:#181818;stroke-width:1;"/><line style="stroke:#181818;stroke-width:1;" x1="487.6387" x2="1039.3345" y1="861.5605" y2="861.5605"/><text fill="#000000" font-family="sans-serif" font-size="13" lengthAdjust="spacing" textLength="111.3252" x="494.6387" y="856.8184">fetch shard_N.bin</text></g><g class="message" data-entity-1="part5" data-entity-2="part2" id="msg13"><polygon fill="#181818" points="498.6387,886.8711,488.6387,890.8711,498.6387,894.8711,494.6387,890.8711" style="stroke:#181818;stroke-width:1;"/><line style="stroke:#181818;stroke-width:1;" x1="492.6387" x2="1044.3345" y1="890.8711" y2="890.8711"/><text fill="#000000" font-family="sans-serif" font-size="13" lengthAdjust="spacing" textLength="92.5679" x="504.6387" y="886.1289">Shard bit array</text></g><path d="M398,903.8711 L398,943.8711 L576,943.8711 L576,913.8711 L566,903.8711 L398,903.8711" fill="#FEFFDD" style="stroke:#181818;stroke-width:0.5;"/><path d="M566,903.8711 L566,913.8711 L576,913.8711 L566,903.8711" fill="#FEFFDD" style="stroke:#181818;stroke-width:0.5;"/><text fill="#000000" font-family="sans-serif" font-size="13" lengthAdjust="spacing" textLength="157.9805" x="404" y="921.4395">Cache shard in LRU pool,</text><text fill="#000000" font-family="sans-serif" font-size="13" lengthAdjust="spacing" textLength="114.2197" x="404" y="936.75">check bloom filter</text><line style="stroke:#000000;stroke-width:1;stroke-dasharray:2,2;" x1="337" x2="1124.1782" y1="957.4922" y2="957.4922"/><text fill="#000000" font-family="sans-serif" font-size="11" font-weight="bold" lengthAdjust="spacing" textLength="112.9702" x="342" y="968.127">[Single bloom filter]</text><path d="M377,976.4473 L377,1001.4473 L598,1001.4473 L598,986.4473 L588,976.4473 L377,976.4473" fill="#FEFFDD" style="stroke:#181818;stroke-width:0.5;"/><path d="M588,976.4473 L588,986.4473 L598,986.4473 L588,976.4473" fill="#FEFFDD" style="stroke:#181818;stroke-width:0.5;"/><text fill="#000000" font-family="sans-serif" font-size="13" lengthAdjust="spacing" textLength="200.0845" x="383" y="994.0156">Check bloom filter (in-memory)</text><path d="M20,1020.7578 L82.1387,1020.7578 L82.1387,1028.0684 L72.1387,1038.0684 L20,1038.0684 L20,1020.7578" fill="#EEEEEE" style="stroke:#000000;stroke-width:1.5;"/><rect fill="none" height="422.6133" style="stroke:#000000;stroke-width:1.5;" width="1425.2114" x="20" y="1020.7578"/><text fill="#000000" font-family="sans-serif" font-size="13" font-weight="bold" lengthAdjust="spacing" textLength="17.1387" x="35" y="1034.3262">alt</text><text fill="#000000" font-family="sans-serif" font-size="11" font-weight="bold" lengthAdjust="spacing" textLength="118.4272" x="97.1387" y="1033.3926">[Domain in blocklist]</text><g class="message" data-entity-1="part2" data-entity-2="part4" id="msg14"><polygon fill="#808080" points="914.6909,1055.3789,924.6909,1059.3789,914.6909,1063.3789,918.6909,1059.3789" style="stroke:#808080;stroke-width:1;"/><line style="stroke:#808080;stroke-width:1;stroke-dasharray:2,2;" x1="487.6387" x2="920.6909" y1="1059.3789" y2="1059.3789"/><text fill="#000000" font-family="sans-serif" font-size="13" lengthAdjust="spacing" textLength="229.8042" x="494.6387" y="1054.6367">POST log entry (async, if configured)</text></g><g class="message" data-entity-1="part2" data-entity-2="part1" id="msg15"><polygon fill="#181818" points="89.1519,1084.6895,79.1519,1088.6895,89.1519,1092.6895,85.1519,1088.6895" style="stroke:#181818;stroke-width:1;"/><line style="stroke:#181818;stroke-width:1;" x1="83.1519" x2="486.6387" y1="1088.6895" y2="1088.6895"/><text fill="#000000" font-family="sans-serif" font-size="13" lengthAdjust="spacing" textLength="140.6006" x="95.1519" y="1083.9473">NXDOMAIN (synthetic)</text></g><line style="stroke:#000000;stroke-width:1;stroke-dasharray:2,2;" x1="20" x2="1445.2114" y1="1097.6895" y2="1097.6895"/><text fill="#000000" font-family="sans-serif" font-size="11" font-weight="bold" lengthAdjust="spacing" textLength="122.2354" x="25" y="1108.3242">[Domain not blocked]</text><path d="M409.2725,1118.6445 L503.7397,1118.6445 L503.7397,1125.9551 L493.7397,1135.9551 L409.2725,1135.9551 L409.2725,1118.6445" fill="#EEEEEE" style="stroke:#000000;stroke-width:1.5;"/><rect fill="none" height="193.1738" style="stroke:#000000;stroke-width:1.5;" width="1025.939" x="409.2725" y="1118.6445"/><text fill="#000000" font-family="sans-serif" font-size="13" font-weight="bold" lengthAdjust="spacing" textLength="49.4673" x="424.2725" y="1132.2129">Parallel</text><g class="message" data-entity-1="part2" data-entity-2="part6" id="msg16"><polygon fill="#181818" points="1155.5054,1153.2656,1165.5054,1157.2656,1155.5054,1161.2656,1159.5054,1157.2656" style="stroke:#181818;stroke-width:1;"/><line style="stroke:#181818;stroke-width:1;" x1="487.6387" x2="1161.5054" y1="1157.2656" y2="1157.2656"/><text fill="#000000" font-family="sans-serif" font-size="13" lengthAdjust="spacing" textLength="282.6484" x="494.6387" y="1152.5234">GET/POST https://main-provider/dns-query</text></g><g class="message" data-entity-1="part6" data-entity-2="part2" id="msg17"><polygon fill="#181818" points="498.6387,1182.5762,488.6387,1186.5762,498.6387,1190.5762,494.6387,1186.5762" style="stroke:#181818;stroke-width:1;"/><line style="stroke:#181818;stroke-width:1;" x1="492.6387" x2="1166.5054" y1="1186.5762" y2="1186.5762"/><text fill="#000000" font-family="sans-serif" font-size="13" lengthAdjust="spacing" textLength="180.8003" x="504.6387" y="1181.834">Main Provider DNS Response</text></g><g class="message" data-entity-1="part2" data-entity-2="part7" id="msg18"><polygon fill="#181818" points="1297.3774,1211.8867,1307.3774,1215.8867,1297.3774,1219.8867,1301.3774,1215.8867" style="stroke:#181818;stroke-width:1;"/><line style="stroke:#181818;stroke-width:1;" x1="487.6387" x2="1303.3774" y1="1215.8867" y2="1215.8867"/><text fill="#000000" font-family="sans-serif" font-size="13" lengthAdjust="spacing" textLength="330.1606" x="494.6387" y="1211.1445">GET/POST https://additional-provider-1/dns-query</text></g><g class="message" data-entity-1="part7" data-entity-2="part2" id="msg19"><polygon fill="#181818" points="498.6387,1241.1973,488.6387,1245.1973,498.6387,1249.1973,494.6387,1245.1973" style="stroke:#181818;stroke-width:1;"/><line style="stroke:#181818;stroke-width:1;" x1="492.6387" x2="1308.3774" y1="1245.1973" y2="1245.1973"/><text fill="#000000" font-family="sans-serif" font-size="13" lengthAdjust="spacing" textLength="227.6333" x="504.6387" y="1240.4551">Additional Provider 1 DNS Response</text></g><g class="message" data-entity-1="part2" data-entity-2="part8" id="msg20"><polygon fill="#181818" points="1399.5669,1270.5078,1409.5669,1274.5078,1399.5669,1278.5078,1403.5669,1274.5078" style="stroke:#181818;stroke-width:1;"/><line style="stroke:#181818;stroke-width:1;" x1="487.6387" x2="1405.5669" y1="1274.5078" y2="1274.5078"/><text fill="#000000" font-family="sans-serif" font-size="13" lengthAdjust="spacing" textLength="330.0083" x="494.6387" y="1269.7656">GET/POST https://additional-provider-n/dns-query</text></g><g class="message" data-entity-1="part8" data-entity-2="part2" id="msg21"><polygon fill="#181818" points="498.6387,1299.8184,488.6387,1303.8184,498.6387,1307.8184,494.6387,1303.8184" style="stroke:#181818;stroke-width:1;"/><line style="stroke:#181818;stroke-width:1;" x1="492.6387" x2="1410.5669" y1="1303.8184" y2="1303.8184"/><text fill="#000000" font-family="sans-serif" font-size="13" lengthAdjust="spacing" textLength="229.0171" x="504.6387" y="1299.0762">Additional Provider N DNS Response</text></g><path d="M344,1323.8184 L344,1378.8184 L630,1378.8184 L630,1333.8184 L620,1323.8184 L344,1323.8184" fill="#FEFFDD" style="stroke:#181818;stroke-width:0.5;"/><path d="M620,1323.8184 L620,1333.8184 L630,1333.8184 L620,1323.8184" fill="#FEFFDD" style="stroke:#181818;stroke-width:0.5;"/><text fill="#000000" font-family="sans-serif" font-size="13" lengthAdjust="spacing" textLength="265.3765" x="350" y="1341.3867">Select winner: blocked &gt; possibly blocked</text><text fill="#000000" font-family="sans-serif" font-size="13" lengthAdjust="spacing" textLength="199.8496" x="350" y="1356.6973">&gt; main provider &gt; any provider</text><text fill="#000000" font-family="sans-serif" font-size="13" lengthAdjust="spacing" textLength="224.8594" x="350" y="1372.0078">Apply rebind protection (if enabled)</text><g class="message" data-entity-1="part2" data-entity-2="part4" id="msg22"><polygon fill="#808080" points="914.6909,1402.0605,924.6909,1406.0605,914.6909,1410.0605,918.6909,1406.0605" style="stroke:#808080;stroke-width:1;"/><line style="stroke:#808080;stroke-width:1;stroke-dasharray:2,2;" x1="487.6387" x2="920.6909" y1="1406.0605" y2="1406.0605"/><text fill="#000000" font-family="sans-serif" font-size="13" lengthAdjust="spacing" textLength="229.8042" x="494.6387" y="1401.3184">POST log entry (async, if configured)</text></g><g class="message" data-entity-1="part2" data-entity-2="part1" id="msg23"><polygon fill="#181818" points="89.1519,1431.3711,79.1519,1435.3711,89.1519,1439.3711,85.1519,1435.3711" style="stroke:#181818;stroke-width:1;"/><line style="stroke:#181818;stroke-width:1;" x1="83.1519" x2="486.6387" y1="1435.3711" y2="1435.3711"/><text fill="#000000" font-family="sans-serif" font-size="13" lengthAdjust="spacing" textLength="208.73" x="95.1519" y="1430.6289">Cloudflare Worker DNS Response</text></g><?plantuml-src rLPTRzem57tFhxXYBq4ji4xg2vgG-58xZKBLC7NIc2hZ6E9XxCmsjD6q_xxh12WVIGlhooRnG9phSyyzz_Wwbbl1e2tK8fm8eXbqr3NSAprZ6WBsSy4anJLEffhCFOzGovV4CYXr-W7kuapQakTjFq6b0QKjl0ohL8Uhxh1sEmY645aRctgjHZT1bSSqg1AgEU6oncGOAovjBIOsyZofCA5Q8g5St3jcb5Wo-1LqstVTuM-81Q4iKY9asepaBT46Aq22sfLZx4WEzK9ILqMt7K2isOG_CGC-dm2JP2nOMCPAXKKf71t0NxFN6zntEm-TmKtpKp_mfbejOWYudA9uArpmMqbCZ85RhPOSauEI8Ybxa4SxLMalFa-ZSHfIYLSXjL2Q2cRJIG7inqeUx3unfmRA5Yjfc8TgOmVpA7vxXrrFlZkgLvfCY2JGKpEEW2b7eQOecDK9-CGaafu3AaYLdF3fGZiHY-hUSaiT3cBss0dNlKqZMhr1-_DM8mh4VIlpufxjSEz_pNY0ZoWsOfRJyWvZj6wEVK3fWq8y5Lje2KLdWgENLaO4dwAFmLYYhMFbN1b4H8VuQYoKciE42ukQ-OqFbt3JSZ75tBF_1fh6C6kG_uHP6cL0rHz6oSBTpbO7krCYC6UMXCGIy3D2CS59OSx1f6-fMaYRiNhb6BS9ZTXgrmOJjPkpkKhjdkgwEdBRjR-jP3XRFOpvYUMtjlK_st0-ljQT1kvKYYSoFPL5xVPUpN1DJ0JPE0Mh86IuQyxbMc0kG_QqxIUNltVt1MZApBzyZsQ2M2bnNEyYHcUxzKmq_a_HmYpdfeDfEdSmihT_qxuKyA5_Ui-ov6DkWMWS4AVwSYMIq-Ly9Eb1rUlU5JlrT25zBYkPCyhFfdWUYEFroFWVHc5A5bkUNPzuCnCXc7WXnOtR-TBzwA1Fkntt8NUUT--UObxDCEIMAqd4yzQBF7va4xXXMRauYcTHYjpr8tbNgzKZESfZEAPmUNpwELyOhpW_O89H2uzSIgRhQwT00m-RCNmialNII3OWDTIQAyOGcMmUHx8PnnYk6Kw7q2rR14Q2Unzu_-uNpshw_m40?></g></svg>
