<?plantuml 1.2026.2?><svg xmlns="http://www.w3.org/2000/svg" xmlns:xlink="http://www.w3.org/1999/xlink" contentStyleType="text/css" data-diagram-type="SEQUENCE" height="1237px" preserveAspectRatio="none" style="width:1462px;height:1237px;background:#FFFFFF;" version="1.1" viewBox="0 0 1462 1237" width="1462px" zoomAndPan="magnify"><title>Cloudflare DoH Worker Sequence Diagram</title><defs/><g><text fill="#000000" font-family="sans-serif" font-size="14" font-weight="bold" lengthAdjust="spacing" textLength="304.917" x="579.6472" y="28.5352">Cloudflare DoH Worker Sequence Diagram</text><g><title>DNS Client</title><rect fill="#FFFFFF" height="1109.3105" style="stroke:#181818;stroke-width:1;" width="10" x="68.1519" y="83.9766"/></g><rect fill="none" height="999.0684" style="stroke:#000000;stroke-width:1.5;" width="1445.2114" x="10" y="186.2188"/><rect fill="none" height="75.9316" style="stroke:#000000;stroke-width:1.5;" width="467.6187" x="409.2725" y="210.5293"/><rect fill="none" height="67.9316" style="stroke:#000000;stroke-width:1.5;" width="257.6313" x="379" y="447.6133"/><rect fill="none" height="176.8184" style="stroke:#000000;stroke-width:1.5;" width="745.1782" x="369" y="564.8555"/><rect fill="none" height="422.6133" style="stroke:#000000;stroke-width:1.5;" width="1425.2114" x="20" y="755.6738"/><rect fill="none" height="193.1738" style="stroke:#000000;stroke-width:1.5;" width="1025.939" x="409.2725" y="853.5605"/><g class="participant-lifeline" data-entity-uid="part1" data-qualified-name="DNS Client" id="part1-lifeline"><g><title>DNS Client</title><rect fill="#000000" fill-opacity="0.00000" height="1128.3105" width="8" x="69.1519" y="73.9766"/><line style="stroke:#181818;stroke-width:0.5;stroke-dasharray:5,5;" x1="73" x2="73" y1="73.9766" y2="1202.2871"/></g></g><g class="participant-lifeline" data-entity-uid="part2" data-qualified-name="Cloudflare Worker" id="part2-lifeline"><g><title>Cloudflare Worker</title><rect fill="#000000" fill-opacity="0.00000" height="1128.3105" width="8" x="483.6387" y="73.9766"/><line style="stroke:#181818;stroke-width:0.5;stroke-dasharray:5,5;" x1="487.2725" x2="487.2725" y1="73.9766" y2="1202.2871"/></g></g><g class="participant-lifeline" data-entity-uid="part3" data-qualified-name="Bypass Provider" id="part3-lifeline"><g><title>Bypass Provider</title><rect fill="#000000" fill-opacity="0.00000" height="1128.3105" width="8" x="802.7349" y="73.9766"/><line style="stroke:#181818;stroke-width:0.5;stroke-dasharray:5,5;" x1="806.5786" x2="806.5786" y1="73.9766" y2="1202.2871"/></g></g><g class="participant-lifeline" data-entity-uid="part4" data-qualified-name="Grafana Loki" id="part4-lifeline"><g><title>Grafana Loki</title><rect fill="#000000" fill-opacity="0.00000" height="1128.3105" width="8" x="922.6909" y="73.9766"/><line style="stroke:#181818;stroke-width:0.5;stroke-dasharray:5,5;" x1="925.8911" x2="925.8911" y1="73.9766" y2="1202.2871"/></g></g><g class="participant-lifeline" data-entity-uid="part5" data-qualified-name="Workers Assets" id="part5-lifeline"><g><title>Workers Assets</title><rect fill="#000000" fill-opacity="0.00000" height="1128.3105" width="8" x="1041.3345" y="73.9766"/><line style="stroke:#181818;stroke-width:0.5;stroke-dasharray:5,5;" x1="1044.4907" x2="1044.4907" y1="73.9766" y2="1202.2871"/></g></g><g class="participant-lifeline" data-entity-uid="part6" data-qualified-name="Main Provider" id="part6-lifeline"><g><title>Main Provider</title><rect fill="#000000" fill-opacity="0.00000" height="1128.3105" width="8" x="1163.5054" y="73.9766"/><line style="stroke:#181818;stroke-width:0.5;stroke-dasharray:5,5;" x1="1167.1782" x2="1167.1782" y1="73.9766" y2="1202.2871"/></g></g><g class="participant-lifeline" data-entity-uid="part7" data-qualified-name="Additional Provider 1" id="part7-lifeline"><g><title>Additional Provider 1</title><rect fill="#000000" fill-opacity="0.00000" height="1128.3105" width="8" x="1305.3774" y="73.9766"/><line style="stroke:#181818;stroke-width:0.5;stroke-dasharray:5,5;" x1="1308.8325" x2="1308.8325" y1="73.9766" y2="1202.2871"/></g></g><g class="participant-lifeline" data-entity-uid="part8" data-qualified-name="..." id="part8-lifeline"><g><title>...</title><rect fill="#000000" fill-opacity="0.00000" height="1128.3105" width="8" x="1407.5669" y="73.9766"/><line style="stroke:#181818;stroke-width:0.5;stroke-dasharray:5,5;" x1="1410.9224" x2="1410.9224" y1="73.9766" y2="1202.2871"/></g></g><g class="participant participant-head" data-entity-uid="part1" data-qualified-name="DNS Client" id="part1-head"><rect fill="#E2E2F0" height="30.4883" rx="2.5" ry="2.5" style="stroke:#181818;stroke-width:0.5;" width="86.3037" x="30" y="42.4883"/><text fill="#000000" font-family="sans-serif" font-size="14" lengthAdjust="spacing" textLength="72.3037" x="37" y="63.0234">DNS Client</text></g><g class="participant participant-tail" data-entity-uid="part1" data-qualified-name="DNS Client" id="part1-tail"><rect fill="#E2E2F0" height="30.4883" rx="2.5" ry="2.5" style="stroke:#181818;stroke-width:0.5;" width="86.3037" x="30" y="1201.2871"/><text fill="#000000" font-family="sans-serif" font-size="14" lengthAdjust="spacing" textLength="72.3037" x="37" y="1221.8223">DNS Client</text></g><g class="participant participant-head" data-entity-uid="part2" data-qualified-name="Cloudflare Worker" id="part2-head"><rect fill="#E2E2F0" height="30.4883" rx="2.5" ry="2.5" style="stroke:#181818;stroke-width:0.5;" width="136.7324" x="419.2725" y="42.4883"/><text fill="#000000" font-family="sans-serif" font-size="14" lengthAdjust="spacing" textLength="122.7324" x="426.2725" y="63.0234">Cloudflare Worker</text></g><g class="participant participant-tail" data-entity-uid="part2" data-qualified-name="Cloudflare Worker" id="part2-tail"><rect fill="#E2E2F0" height="30.4883" rx="2.5" ry="2.5" style="stroke:#181818;stroke-width:0.5;" width="136.7324" x="419.2725" y="1201.2871"/><text fill="#000000" font-family="sans-serif" font-size="14" lengthAdjust="spacing" textLength="122.7324" x="426.2725" y="1221.8223">Cloudflare Worker</text></g><g class="participant participant-head" data-entity-uid="part3" data-qualified-name="Bypass Provider" id="part3-head"><rect fill="#E2E2F0" height="30.4883" rx="2.5" ry="2.5" style="stroke:#181818;stroke-width:0.5;" width="120.3125" x="746.5786" y="42.4883"/><text fill="#000000" font-family="sans-serif" font-size="14" lengthAdjust="spacing" textLength="106.3125" x="753.5786" y="63.0234">Bypass Provider</text></g><g class="participant participant-tail" data-entity-uid="part3" data-qualified-name="Bypass Provider" id="part3-tail"><rect fill="#E2E2F0" height="30.4883" rx="2.5" ry="2.5" style="stroke:#181818;stroke-width:0.5;" width="120.3125" x="746.5786" y="1201.2871"/><text fill="#000000" font-family="sans-serif" font-size="14" lengthAdjust="spacing" textLength="106.3125" x="753.5786" y="1221.8223">Bypass Provider</text></g><g class="participant participant-head" data-entity-uid="part4" data-qualified-name="Grafana Loki" id="part4-head"><rect fill="#E2E2F0" height="30.4883" rx="2.5" ry="2.5" style="stroke:#181818;stroke-width:0.5;" width="99.5996" x="876.8911" y="42.4883"/><text fill="#000000" font-family="sans-serif" font-size="14" lengthAdjust="spacing" textLength="85.5996" x="883.8911" y="63.0234">Grafana Loki</text></g><g class="participant participant-tail" data-entity-uid="part4" data-qualified-name="Grafana Loki" id="part4-tail"><rect fill="#E2E2F0" height="30.4883" rx="2.5" ry="2.5" style="stroke:#181818;stroke-width:0.5;" width="99.5996" x="876.8911" y="1201.2871"/><text fill="#000000" font-family="sans-serif" font-size="14" lengthAdjust="spacing" textLength="85.5996" x="883.8911" y="1221.8223">Grafana Loki</text></g><g class="participant participant-head" data-entity-uid="part5" data-qualified-name="Workers Assets" id="part5-head"><rect fill="#E2E2F0" height="30.4883" rx="2.5" ry="2.5" style="stroke:#181818;stroke-width:0.5;" width="117.6875" x="986.4907" y="42.4883"/><text fill="#000000" font-family="sans-serif" font-size="14" lengthAdjust="spacing" textLength="103.6875" x="993.4907" y="63.0234">Workers Assets</text></g><g class="participant participant-tail" data-entity-uid="part5" data-qualified-name="Workers Assets" id="part5-tail"><rect fill="#E2E2F0" height="30.4883" rx="2.5" ry="2.5" style="stroke:#181818;stroke-width:0.5;" width="117.6875" x="986.4907" y="1201.2871"/><text fill="#000000" font-family="sans-serif" font-size="14" lengthAdjust="spacing" textLength="103.6875" x="993.4907" y="1221.8223">Workers Assets</text></g><g class="participant participant-head" data-entity-uid="part6" data-qualified-name="Main Provider" id="part6-head"><rect fill="#E2E2F0" height="30.4883" rx="2.5" ry="2.5" style="stroke:#181818;stroke-width:0.5;" width="106.6543" x="1114.1782" y="42.4883"/><text fill="#000000" font-family="sans-serif" font-size="14" lengthAdjust="spacing" textLength="92.6543" x="1121.1782" y="63.0234">Main Provider</text></g><g class="participant participant-tail" data-entity-uid="part6" data-qualified-name="Main Provider" id="part6-tail"><rect fill="#E2E2F0" height="30.4883" rx="2.5" ry="2.5" style="stroke:#181818;stroke-width:0.5;" width="106.6543" x="1114.1782" y="1201.2871"/><text fill="#000000" font-family="sans-serif" font-size="14" lengthAdjust="spacing" textLength="92.6543" x="1121.1782" y="1221.8223">Main Provider</text></g><g class="participant participant-head" data-entity-uid="part7" data-qualified-name="Additional Provider 1" id="part7-head"><rect fill="#E2E2F0" height="30.4883" rx="2.5" ry="2.5" style="stroke:#181818;stroke-width:0.5;" width="157.0898" x="1230.8325" y="42.4883"/><text fill="#000000" font-family="sans-serif" font-size="14" lengthAdjust="spacing" textLength="143.0898" x="1237.8325" y="63.0234">Additional Provider 1</text></g><g class="participant participant-tail" data-entity-uid="part7" data-qualified-name="Additional Provider 1" id="part7-tail"><rect fill="#E2E2F0" height="30.4883" rx="2.5" ry="2.5" style="stroke:#181818;stroke-width:0.5;" width="157.0898" x="1230.8325" y="1201.2871"/><text fill="#000000" font-family="sans-serif" font-size="14" lengthAdjust="spacing" textLength="143.0898" x="1237.8325" y="1221.8223">Additional Provider 1</text></g><g class="participant participant-head" data-entity-uid="part8" data-qualified-name="..." id="part8-head"><rect fill="#E2E2F0" height="30.4883" rx="2.5" ry="2.5" style="stroke:#181818;stroke-width:0.5;" width="27.2891" x="1397.9224" y="42.4883"/><text fill="#000000" font-family="sans-serif" font-size="14" lengthAdjust="spacing" textLength="13.2891" x="1404.9224" y="63.0234">...</text></g><g class="participant participant-tail" data-entity-uid="part8" data-qualified-name="..." id="part8-tail"><rect fill="#E2E2F0" height="30.4883" rx="2.5" ry="2.5" style="stroke:#181818;stroke-width:0.5;" width="27.2891" x="1397.9224" y="1201.2871"/><text fill="#000000" font-family="sans-serif" font-size="14" lengthAdjust="spacing" textLength="13.2891" x="1404.9224" y="1221.8223">...</text></g><g><title>DNS Client</title><rect fill="#FFFFFF" height="1109.3105" style="stroke:#181818;stroke-width:1;" width="10" x="68.1519" y="83.9766"/></g><g class="message" data-entity-1="part1" data-entity-2="part2" id="msg1"><polygon fill="#181818" points="475.6387,101.2871,485.6387,105.2871,475.6387,109.2871,479.6387,105.2871" style="stroke:#181818;stroke-width:1;"/><line style="stroke:#181818;stroke-width:1;" x1="78.1519" x2="481.6387" y1="105.2871" y2="105.2871"/><text fill="#000000" font-family="sans-serif" font-size="13" lengthAdjust="spacing" textLength="385.4868" x="85.1519" y="100.5449">GET/POST https://cloudflare-worker-domain/endpoint/path</text></g><path d="M370,118.2871 L370,173.2871 L604,173.2871 L604,128.2871 L594,118.2871 L370,118.2871" fill="#FEFFDD" style="stroke:#181818;stroke-width:0.5;"/><path d="M594,118.2871 L594,128.2871 L604,128.2871 L594,118.2871" fill="#FEFFDD" style="stroke:#181818;stroke-width:0.5;"/><text fill="#000000" font-family="sans-serif" font-size="13" lengthAdjust="spacing" textLength="191.2168" x="376" y="135.8555">Resolve {SECRET} placeholders</text><text fill="#000000" font-family="sans-serif" font-size="13" lengthAdjust="spacing" textLength="115.667" x="376" y="151.166">Parse DNS request</text><text fill="#000000" font-family="sans-serif" font-size="13" lengthAdjust="spacing" textLength="213.0845" x="376" y="166.4766">Truncate ECS prefixes (if enabled)</text><path d="M10,186.2188 L72.1387,186.2188 L72.1387,193.5293 L62.1387,203.5293 L10,203.5293 L10,186.2188" fill="#EEEEEE" style="stroke:#000000;stroke-width:1.5;"/><rect fill="none" height="999.0684" style="stroke:#000000;stroke-width:1.5;" width="1445.2114" x="10" y="186.2188"/><text fill="#000000" font-family="sans-serif" font-size="13" font-weight="bold" lengthAdjust="spacing" textLength="17.1387" x="25" y="199.7871">alt</text><text fill="#000000" font-family="sans-serif" font-size="11" font-weight="bold" lengthAdjust="spacing" textLength="184.8569" x="87.1387" y="198.8535">[Domain in ALLOWED_DOMAINS]</text><path d="M409.2725,210.5293 L704.2114,210.5293 L704.2114,217.8398 L694.2114,227.8398 L409.2725,227.8398 L409.2725,210.5293" fill="#EEEEEE" style="stroke:#000000;stroke-width:1.5;"/><rect fill="none" height="75.9316" style="stroke:#000000;stroke-width:1.5;" width="467.6187" x="409.2725" y="210.5293"/><text fill="#000000" font-family="sans-serif" font-size="13" font-weight="bold" lengthAdjust="spacing" textLength="249.939" x="424.2725" y="224.0977">Single request (Bypass Provider only)</text><g class="message" data-entity-1="part2" data-entity-2="part3" id="msg2"><polygon fill="#181818" points="794.7349,245.1504,804.7349,249.1504,794.7349,253.1504,798.7349,249.1504" style="stroke:#181818;stroke-width:1;"/><line style="stroke:#181818;stroke-width:1;" x1="487.6387" x2="800.7349" y1="249.1504" y2="249.1504"/><text fill="#000000" font-family="sans-serif" font-size="13" lengthAdjust="spacing" textLength="295.0962" x="494.6387" y="244.4082">GET/POST https://bypass-provider/dns-query</text></g><g class="message" data-entity-1="part3" data-entity-2="part2" id="msg3"><polygon fill="#181818" points="498.6387,274.4609,488.6387,278.4609,498.6387,282.4609,494.6387,278.4609" style="stroke:#181818;stroke-width:1;"/><line style="stroke:#181818;stroke-width:1;" x1="492.6387" x2="805.7349" y1="278.4609" y2="278.4609"/><text fill="#000000" font-family="sans-serif" font-size="13" lengthAdjust="spacing" textLength="193.4829" x="504.6387" y="273.7188">Bypass Provider DNS Response</text></g><g class="message" data-entity-1="part2" data-entity-2="part4" id="msg4"><polygon fill="#808080" points="914.6909,310.7715,924.6909,314.7715,914.6909,318.7715,918.6909,314.7715" style="stroke:#808080;stroke-width:1;"/><line style="stroke:#808080;stroke-width:1;stroke-dasharray:2,2;" x1="487.6387" x2="920.6909" y1="314.7715" y2="314.7715"/><text fill="#000000" font-family="sans-serif" font-size="13" lengthAdjust="spacing" textLength="229.8042" x="494.6387" y="310.0293">POST log entry (async, if configured)</text></g><g class="message" data-entity-1="part2" data-entity-2="part1" id="msg5"><polygon fill="#181818" points="89.1519,340.082,79.1519,344.082,89.1519,348.082,85.1519,344.082" style="stroke:#181818;stroke-width:1;"/><line style="stroke:#181818;stroke-width:1;" x1="83.1519" x2="486.6387" y1="344.082" y2="344.082"/><text fill="#000000" font-family="sans-serif" font-size="13" lengthAdjust="spacing" textLength="208.73" x="95.1519" y="339.3398">Cloudflare Worker DNS Response</text></g><line style="stroke:#000000;stroke-width:1;stroke-dasharray:2,2;" x1="10" x2="1455.2114" y1="353.082" y2="353.082"/><text fill="#000000" font-family="sans-serif" font-size="11" font-weight="bold" lengthAdjust="spacing" textLength="182.9932" x="15" y="363.7168">[Domain in BLOCKED_DOMAINS]</text><g class="message" data-entity-1="part2" data-entity-2="part4" id="msg6"><polygon fill="#808080" points="914.6909,384.3477,924.6909,388.3477,914.6909,392.3477,918.6909,388.3477" style="stroke:#808080;stroke-width:1;"/><line style="stroke:#808080;stroke-width:1;stroke-dasharray:2,2;" x1="487.6387" x2="920.6909" y1="388.3477" y2="388.3477"/><text fill="#000000" font-family="sans-serif" font-size="13" lengthAdjust="spacing" textLength="229.8042" x="494.6387" y="383.6055">POST log entry (async, if configured)</text></g><g class="message" data-entity-1="part2" data-entity-2="part1" id="msg7"><polygon fill="#181818" points="89.1519,413.6582,79.1519,417.6582,89.1519,421.6582,85.1519,417.6582" style="stroke:#181818;stroke-width:1;"/><line style="stroke:#181818;stroke-width:1;" x1="83.1519" x2="486.6387" y1="417.6582" y2="417.6582"/><text fill="#000000" font-family="sans-serif" font-size="13" lengthAdjust="spacing" textLength="140.6006" x="95.1519" y="412.916">NXDOMAIN (synthetic)</text></g><line style="stroke:#000000;stroke-width:1;stroke-dasharray:2,2;" x1="10" x2="1455.2114" y1="426.6582" y2="426.6582"/><text fill="#000000" font-family="sans-serif" font-size="11" font-weight="bold" lengthAdjust="spacing" textLength="339.5713" x="15" y="437.293">[Domain not in ALLOWED_DOMAINS or BLOCKED_DOMAINS]</text><path d="M379,447.6133 L446.1851,447.6133 L446.1851,454.9238 L436.1851,464.9238 L379,464.9238 L379,447.6133" fill="#EEEEEE" style="stroke:#000000;stroke-width:1.5;"/><rect fill="none" height="67.9316" style="stroke:#000000;stroke-width:1.5;" width="257.6313" x="379" y="447.6133"/><text fill="#000000" font-family="sans-serif" font-size="13" font-weight="bold" lengthAdjust="spacing" textLength="22.1851" x="394" y="461.1816">opt</text><text fill="#000000" font-family="sans-serif" font-size="11" font-weight="bold" lengthAdjust="spacing" textLength="170.4463" x="461.1851" y="460.248">[Blocklist enabled (cold start)]</text><path d="M389,469.9238 L389,509.9238 L584,509.9238 L584,479.9238 L574,469.9238 L389,469.9238" fill="#FEFFDD" style="stroke:#181818;stroke-width:0.5;"/><path d="M574,469.9238 L574,479.9238 L584,479.9238 L574,469.9238" fill="#FEFFDD" style="stroke:#181818;stroke-width:0.5;"/><text fill="#000000" font-family="sans-serif" font-size="13" lengthAdjust="spacing" textLength="167.0386" x="395" y="487.4922">Load shard metadata from</text><text fill="#000000" font-family="sans-serif" font-size="13" lengthAdjust="spacing" textLength="174.9224" x="395" y="502.8027">bundled filter_meta module</text><path d="M353,527.5449 L353,552.5449 L620,552.5449 L620,537.5449 L610,527.5449 L353,527.5449" fill="#FEFFDD" style="stroke:#181818;stroke-width:0.5;"/><path d="M610,527.5449 L610,537.5449 L620,537.5449 L610,527.5449" fill="#FEFFDD" style="stroke:#181818;stroke-width:0.5;"/><text fill="#000000" font-family="sans-serif" font-size="13" lengthAdjust="spacing" textLength="246.8032" x="359" y="545.1133">Hash domain to determine shard index</text><path d="M369,564.8555 L431.1387,564.8555 L431.1387,572.166 L421.1387,582.166 L369,582.166 L369,564.8555" fill="#EEEEEE" style="stroke:#000000;stroke-width:1.5;"/><rect fill="none" height="176.8184" style="stroke:#000000;stroke-width:1.5;" width="745.1782" x="369" y="564.8555"/><text fill="#000000" font-family="sans-serif" font-size="13" font-weight="bold" lengthAdjust="spacing" textLength="17.1387" x="384" y="578.4238">alt</text><text fill="#000000" font-family="sans-serif" font-size="11" font-weight="bold" lengthAdjust="spacing" textLength="191.3989" x="446.1387" y="577.4902">[Shard in LRU cache (50 MB pool)]</text><path d="M379,587.166 L379,612.166 L594,612.166 L594,597.166 L584,587.166 L379,587.166" fill="#FEFFDD" style="stroke:#181818;stroke-width:0.5;"/><path d="M584,587.166 L584,597.166 L594,597.166 L584,587.166" fill="#FEFFDD" style="stroke:#181818;stroke-width:0.5;"/><text fill="#000000" font-family="sans-serif" font-size="13" lengthAdjust="spacing" textLength="194.3208" x="385" y="604.7344">Check filter from cached shard</text><line style="stroke:#000000;stroke-width:1;stroke-dasharray:2,2;" x1="369" x2="1114.1782" y1="618.4766" y2="618.4766"/><text fill="#000000" font-family="sans-serif" font-size="11" font-weight="bold" lengthAdjust="spacing" textLength="105.5098" x="374" y="629.1113">[Shard not cached]</text><g class="message" data-entity-1="part2" data-entity-2="part5" id="msg8"><polygon fill="#181818" points="1033.3345,649.7422,1043.3345,653.7422,1033.3345,657.7422,1037.3345,653.7422" style="stroke:#181818;stroke-width:1;"/><line style="stroke:#181818;stroke-width:1;" x1="487.6387" x2="1039.3345" y1="653.7422" y2="653.7422"/><text fill="#000000" font-family="sans-serif" font-size="13" lengthAdjust="spacing" textLength="111.3252" x="494.6387" y="649">fetch shard_N.bin</text></g><g class="message" data-entity-1="part5" data-entity-2="part2" id="msg9"><polygon fill="#181818" points="498.6387,679.0527,488.6387,683.0527,498.6387,687.0527,494.6387,683.0527" style="stroke:#181818;stroke-width:1;"/><line style="stroke:#181818;stroke-width:1;" x1="492.6387" x2="1044.3345" y1="683.0527" y2="683.0527"/><text fill="#000000" font-family="sans-serif" font-size="13" lengthAdjust="spacing" textLength="71.3984" x="504.6387" y="678.3105">Filter shard</text></g><path d="M394,696.0527 L394,736.0527 L580,736.0527 L580,706.0527 L570,696.0527 L394,696.0527" fill="#FEFFDD" style="stroke:#181818;stroke-width:0.5;"/><path d="M570,696.0527 L570,706.0527 L580,706.0527 L570,696.0527" fill="#FEFFDD" style="stroke:#181818;stroke-width:0.5;"/><text fill="#000000" font-family="sans-serif" font-size="13" lengthAdjust="spacing" textLength="165.877" x="400" y="713.6211">Cache shard in LRU cache,</text><text fill="#000000" font-family="sans-serif" font-size="13" lengthAdjust="spacing" textLength="70.0591" x="400" y="728.9316">check filter</text><path d="M20,755.6738 L82.1387,755.6738 L82.1387,762.9844 L72.1387,772.9844 L20,772.9844 L20,755.6738" fill="#EEEEEE" style="stroke:#000000;stroke-width:1.5;"/><rect fill="none" height="422.6133" style="stroke:#000000;stroke-width:1.5;" width="1425.2114" x="20" y="755.6738"/><text fill="#000000" font-family="sans-serif" font-size="13" font-weight="bold" lengthAdjust="spacing" textLength="17.1387" x="35" y="769.2422">alt</text><text fill="#000000" font-family="sans-serif" font-size="11" font-weight="bold" lengthAdjust="spacing" textLength="118.4272" x="97.1387" y="768.3086">[Domain in blocklist]</text><g class="message" data-entity-1="part2" data-entity-2="part4" id="msg10"><polygon fill="#808080" points="914.6909,790.2949,924.6909,794.2949,914.6909,798.2949,918.6909,794.2949" style="stroke:#808080;stroke-width:1;"/><line style="stroke:#808080;stroke-width:1;stroke-dasharray:2,2;" x1="487.6387" x2="920.6909" y1="794.2949" y2="794.2949"/><text fill="#000000" font-family="sans-serif" font-size="13" lengthAdjust="spacing" textLength="229.8042" x="494.6387" y="789.5527">POST log entry (async, if configured)</text></g><g class="message" data-entity-1="part2" data-entity-2="part1" id="msg11"><polygon fill="#181818" points="89.1519,819.6055,79.1519,823.6055,89.1519,827.6055,85.1519,823.6055" style="stroke:#181818;stroke-width:1;"/><line style="stroke:#181818;stroke-width:1;" x1="83.1519" x2="486.6387" y1="823.6055" y2="823.6055"/><text fill="#000000" font-family="sans-serif" font-size="13" lengthAdjust="spacing" textLength="140.6006" x="95.1519" y="818.8633">NXDOMAIN (synthetic)</text></g><line style="stroke:#000000;stroke-width:1;stroke-dasharray:2,2;" x1="20" x2="1445.2114" y1="832.6055" y2="832.6055"/><text fill="#000000" font-family="sans-serif" font-size="11" font-weight="bold" lengthAdjust="spacing" textLength="122.2354" x="25" y="843.2402">[Domain not blocked]</text><path d="M409.2725,853.5605 L503.7397,853.5605 L503.7397,860.8711 L493.7397,870.8711 L409.2725,870.8711 L409.2725,853.5605" fill="#EEEEEE" style="stroke:#000000;stroke-width:1.5;"/><rect fill="none" height="193.1738" style="stroke:#000000;stroke-width:1.5;" width="1025.939" x="409.2725" y="853.5605"/><text fill="#000000" font-family="sans-serif" font-size="13" font-weight="bold" lengthAdjust="spacing" textLength="49.4673" x="424.2725" y="867.1289">Parallel</text><g class="message" data-entity-1="part2" data-entity-2="part6" id="msg12"><polygon fill="#181818" points="1155.5054,888.1816,1165.5054,892.1816,1155.5054,896.1816,1159.5054,892.1816" style="stroke:#181818;stroke-width:1;"/><line style="stroke:#181818;stroke-width:1;" x1="487.6387" x2="1161.5054" y1="892.1816" y2="892.1816"/><text fill="#000000" font-family="sans-serif" font-size="13" lengthAdjust="spacing" textLength="282.6484" x="494.6387" y="887.4395">GET/POST https://main-provider/dns-query</text></g><g class="message" data-entity-1="part6" data-entity-2="part2" id="msg13"><polygon fill="#181818" points="498.6387,917.4922,488.6387,921.4922,498.6387,925.4922,494.6387,921.4922" style="stroke:#181818;stroke-width:1;"/><line style="stroke:#181818;stroke-width:1;" x1="492.6387" x2="1166.5054" y1="921.4922" y2="921.4922"/><text fill="#000000" font-family="sans-serif" font-size="13" lengthAdjust="spacing" textLength="180.8003" x="504.6387" y="916.75">Main Provider DNS Response</text></g><g class="message" data-entity-1="part2" data-entity-2="part7" id="msg14"><polygon fill="#181818" points="1297.3774,946.8027,1307.3774,950.8027,1297.3774,954.8027,1301.3774,950.8027" style="stroke:#181818;stroke-width:1;"/><line style="stroke:#181818;stroke-width:1;" x1="487.6387" x2="1303.3774" y1="950.8027" y2="950.8027"/><text fill="#000000" font-family="sans-serif" font-size="13" lengthAdjust="spacing" textLength="330.1606" x="494.6387" y="946.0605">GET/POST https://additional-provider-1/dns-query</text></g><g class="message" data-entity-1="part7" data-entity-2="part2" id="msg15"><polygon fill="#181818" points="498.6387,976.1133,488.6387,980.1133,498.6387,984.1133,494.6387,980.1133" style="stroke:#181818;stroke-width:1;"/><line style="stroke:#181818;stroke-width:1;" x1="492.6387" x2="1308.3774" y1="980.1133" y2="980.1133"/><text fill="#000000" font-family="sans-serif" font-size="13" lengthAdjust="spacing" textLength="227.6333" x="504.6387" y="975.3711">Additional Provider 1 DNS Response</text></g><g class="message" data-entity-1="part2" data-entity-2="part8" id="msg16"><polygon fill="#181818" points="1399.5669,1005.4238,1409.5669,1009.4238,1399.5669,1013.4238,1403.5669,1009.4238" style="stroke:#181818;stroke-width:1;"/><line style="stroke:#181818;stroke-width:1;" x1="487.6387" x2="1405.5669" y1="1009.4238" y2="1009.4238"/><text fill="#000000" font-family="sans-serif" font-size="13" lengthAdjust="spacing" textLength="330.0083" x="494.6387" y="1004.6816">GET/POST https://additional-provider-n/dns-query</text></g><g class="message" data-entity-1="part8" data-entity-2="part2" id="msg17"><polygon fill="#181818" points="498.6387,1034.7344,488.6387,1038.7344,498.6387,1042.7344,494.6387,1038.7344" style="stroke:#181818;stroke-width:1;"/><line style="stroke:#181818;stroke-width:1;" x1="492.6387" x2="1410.5669" y1="1038.7344" y2="1038.7344"/><text fill="#000000" font-family="sans-serif" font-size="13" lengthAdjust="spacing" textLength="229.0171" x="504.6387" y="1033.9922">Additional Provider N DNS Response</text></g><path d="M344,1058.7344 L344,1113.7344 L630,1113.7344 L630,1068.7344 L620,1058.7344 L344,1058.7344" fill="#FEFFDD" style="stroke:#181818;stroke-width:0.5;"/><path d="M620,1058.7344 L620,1068.7344 L630,1068.7344 L620,1058.7344" fill="#FEFFDD" style="stroke:#181818;stroke-width:0.5;"/><text fill="#000000" font-family="sans-serif" font-size="13" lengthAdjust="spacing" textLength="265.3765" x="350" y="1076.3027">Select winner: blocked &gt; possibly blocked</text><text fill="#000000" font-family="sans-serif" font-size="13" lengthAdjust="spacing" textLength="199.8496" x="350" y="1091.6133">&gt; main provider &gt; any provider</text><text fill="#000000" font-family="sans-serif" font-size="13" lengthAdjust="spacing" textLength="224.8594" x="350" y="1106.9238">Apply rebind protection (if enabled)</text><g class="message" data-entity-1="part2" data-entity-2="part4" id="msg18"><polygon fill="#808080" points="914.6909,1136.9766,924.6909,1140.9766,914.6909,1144.9766,918.6909,1140.9766" style="stroke:#808080;stroke-width:1;"/><line style="stroke:#808080;stroke-width:1;stroke-dasharray:2,2;" x1="487.6387" x2="920.6909" y1="1140.9766" y2="1140.9766"/><text fill="#000000" font-family="sans-serif" font-size="13" lengthAdjust="spacing" textLength="229.8042" x="494.6387" y="1136.2344">POST log entry (async, if configured)</text></g><g class="message" data-entity-1="part2" data-entity-2="part1" id="msg19"><polygon fill="#181818" points="89.1519,1166.2871,79.1519,1170.2871,89.1519,1174.2871,85.1519,1170.2871" style="stroke:#181818;stroke-width:1;"/><line style="stroke:#181818;stroke-width:1;" x1="83.1519" x2="486.6387" y1="1170.2871" y2="1170.2871"/><text fill="#000000" font-family="sans-serif" font-size="13" lengthAdjust="spacing" textLength="208.73" x="95.1519" y="1165.5449">Cloudflare Worker DNS Response</text></g><?plantuml-src rPNRRXen48Rlzob6z8P80PgBtg0g4gScLGb4B5KgbIeotbdMmjXRsv2ighvxPmzG3ikXwaqhiHBsZdz_yy_OwuIJ21sfbq4ecK7ewdjuqcQE1dpylaJ5QKwmcM4BpsFSYHLp29NkmATL0fMhUDxs26gtKDdIoxKgJRZhZHkFGtyCaNEnRJOQV1DKUyc2Qe5UCA4Qg89O2-KQCNEHvobD6-eL0PNgZj1gkKBuuVSwezxu9yIISOoq3D3OYNfanb8616ZITAoRgB5PAfvcqUlu41iCnIjQg8eGKB6fnE2ACfMEh4XnW7wjVd_urEi-TuSFhOy3tviPlOp15sf6vXMwK6qdCRCM7erU2TeSj9B9bGTbs9bBU_5b7aspa5fSX3G2PMkqcqcEoBwlbSdkWwLka6snLXOzSfigM8RuzGrLFVcMejuP5ZB5eA_dWWGpHgbdP9Wp2LIPJHI_1dAGQnMAsTAa9XxBUwjRcd0GiqSdq-fj2j7k3pkVjWfnnDo_9JzUintsmPUS0wgauY9qWb_j45FhbhGFQ7EGYATZ1ssf-LmAwgMY4Q7AgO_1EcPSIdNcAFGre-28cG0Mw5Z078FGwCL4JPSgIFL28HsQv_GjB7Imb4NzpmZVCnj1VZh1QGYGH1P2OR6PK06-PaV6ByRG7tq6pdY4K7tt5XxQ46ijBqYX4o6V5vWPUwvIf9MRcs-IUfk_Er6k_B-5bhNeBEc7w7YKYpqFwbEXJXoaWyKVSgmSvNmgMVhsm97hYU9RMUO5sBrlfkj6-1yQF8EbAkIN8jstJ4gK9xPuI5UUklLIwJ-xy_ObTyQxDyfnhbOG22UqOlBtqfioFhO9t53MRYxYFBP5wVo5tFLw_K96TGbZ9bV6CoZvRfmv0ZvAv0vUX59eckjEWLkw3QmLKvcifoRg5hA6MhDI35F9PZXHhJYcS8DqP8Dqsf4m0Uvzjl_TxnYvbJw_0000?></g></svg>
